<svg width="24" height="24" viewBox="0 0 24 24" fill="none" xmlns="http://www.w3.org/2000/svg">
<path d="M10.5601 11.87C9.81838 11.87 9.09336 11.6501 8.47667 11.238C7.85999 10.826 7.37934 10.2403 7.09551 9.55506C6.81168 8.86984 6.73742 8.11584 6.88211 7.38841C7.02681 6.66098 7.38396 5.99279 7.90841 5.46835C8.43286 4.9439 9.10104 4.58675 9.82847 4.44205C10.5559 4.29736 11.3099 4.37162 11.9951 4.65545C12.6803 4.93928 13.266 5.41992 13.6781 6.03661C14.0901 6.65329 14.3101 7.37832 14.3101 8.12C14.3074 9.11375 13.9115 10.066 13.2088 10.7687C12.5061 11.4714 11.5538 11.8674 10.5601 11.87ZM10.5601 5.87C10.1151 5.87 9.68004 6.00196 9.31003 6.24919C8.94002 6.49642 8.65163 6.84783 8.48133 7.25896C8.31103 7.67009 8.26648 8.12249 8.35329 8.55895C8.44011 8.99541 8.6544 9.39632 8.96907 9.71099C9.28374 10.0257 9.68465 10.2399 10.1211 10.3268C10.5576 10.4136 11.01 10.369 11.4211 10.1987C11.8322 10.0284 12.1836 9.74004 12.4309 9.37003C12.6781 9.00002 12.8101 8.565 12.8101 8.12C12.8101 7.52326 12.573 6.95096 12.151 6.52901C11.7291 6.10705 11.1568 5.87 10.5601 5.87ZM3.56006 18.87C3.36115 18.87 3.17038 18.791 3.02973 18.6503C2.88908 18.5097 2.81006 18.3189 2.81006 18.12C2.81006 13.37 8.24006 13.37 10.5601 13.37C11.2801 13.37 11.9201 13.37 12.5001 13.44C12.6973 13.4553 12.8806 13.548 13.0098 13.6979C13.1391 13.8477 13.2038 14.0426 13.1901 14.24C13.1722 14.4381 13.0774 14.6214 12.926 14.7504C12.7745 14.8794 12.5785 14.9439 12.3801 14.93C11.8401 14.93 11.2401 14.87 10.5601 14.87C5.38006 14.87 4.31006 16.17 4.31006 18.12C4.3114 18.2189 4.29292 18.317 4.25571 18.4086C4.21849 18.5002 4.1633 18.5834 4.09339 18.6533C4.02347 18.7232 3.94026 18.7784 3.84866 18.8156C3.75705 18.8529 3.65892 18.8713 3.56006 18.87ZM12.6701 19.63C12.4712 19.6298 12.2806 19.5507 12.1401 19.41C12.0611 19.3347 12.0003 19.2425 11.9621 19.1403C11.924 19.0381 11.9096 18.9286 11.9201 18.82L12.0801 16.9C12.0924 16.7235 12.1668 16.557 12.2901 16.43L17.8101 10.91C18.1909 10.5572 18.6909 10.3612 19.2101 10.3612C19.7292 10.3612 20.2292 10.5572 20.6101 10.91C20.7978 11.0992 20.9459 11.3241 21.0455 11.5714C21.1451 11.8187 21.1942 12.0834 21.1901 12.35C21.194 12.5957 21.1491 12.8398 21.0582 13.068C20.9672 13.2963 20.8319 13.5043 20.6601 13.68L15.1401 19.2C15.0176 19.3255 14.8546 19.4035 14.6801 19.42L12.7401 19.6L12.6701 19.63ZM13.5501 17.29L13.4901 18.05L14.2701 17.98L19.6001 12.65C19.663 12.5745 19.6951 12.4781 19.6901 12.38C19.6897 12.2408 19.6401 12.1062 19.5501 12C19.4518 11.9269 19.3325 11.8875 19.2101 11.8875C19.0876 11.8875 18.9684 11.9269 18.8701 12L13.5501 17.29Z" fill="#191919" fill-opacity="0.95"/>
</svg>
