<svg width="20" height="23" viewBox="0 0 20 23" fill="none" xmlns="http://www.w3.org/2000/svg">
<path d="M7.77778 17.4444V14.1111H0V9.66667H7.77778V6.33333L13.3333 11.8889L7.77778 17.4444ZM7.77778 0.777777H17.7778C18.3671 0.777777 18.9324 1.0119 19.3491 1.42865C19.7659 1.8454 20 2.41063 20 3V20.7778C20 21.3671 19.7659 21.9324 19.3491 22.3491C18.9324 22.7659 18.3671 23 17.7778 23H7.77778C7.18841 23 6.62318 22.7659 6.20643 22.3491C5.78968 21.9324 5.55556 21.3671 5.55556 20.7778V18.5556H7.77778V20.7778H17.7778V3H7.77778V5.22222H5.55556V3C5.55556 2.41063 5.78968 1.8454 6.20643 1.42865C6.62318 1.0119 7.18841 0.777777 7.77778 0.777777Z" fill="#213241"/>
</svg>
