<svg width="24" height="24" viewBox="0 0 24 24" fill="none" xmlns="http://www.w3.org/2000/svg">
<path d="M12 1L3 5V11C3 16.55 6.84 21.74 12 23C17.16 21.74 21 16.55 21 11V5L12 1ZM19 11C19 12.85 18.49 14.65 17.62 16.21L16.17 14.76C16.8054 13.7987 17.0888 12.6472 16.9721 11.5008C16.8555 10.3544 16.346 9.28364 15.53 8.47C14.592 7.53338 13.3206 7.00731 11.995 7.00731C10.6694 7.00731 9.39803 7.53338 8.46 8.47C7.52338 9.40803 6.99731 10.6794 6.99731 12.005C6.99731 13.3306 7.52338 14.602 8.46 15.54C9.27482 16.354 10.3454 16.8621 11.4912 16.9787C12.637 17.0952 13.7879 16.8132 14.75 16.18L16.47 17.9C15.28 19.32 13.74 20.41 12 20.94C7.98 19.69 5 15.52 5 11V6.3L12 3.19L19 6.3V11ZM12 15C10.34 15 9 13.66 9 12C9 10.34 10.34 9 12 9C13.66 9 15 10.34 15 12C15 13.66 13.66 15 12 15Z" fill="#191919" fill-opacity="0.75"/>
</svg>
