<svg width="24" height="24" viewBox="0 0 24 24" fill="none" xmlns="http://www.w3.org/2000/svg">
<path d="M8 12H13.025C13.3083 12 13.5417 11.904 13.725 11.712C13.9083 11.5207 14 11.2833 14 11C14 10.7167 13.9043 10.479 13.713 10.287C13.521 10.0957 13.2833 10 13 10H7.975C7.69167 10 7.45833 10.0957 7.275 10.287C7.09167 10.479 7 10.7167 7 11C7 11.2833 7.09567 11.5207 7.287 11.712C7.479 11.904 7.71667 12 8 12ZM8 9H13.025C13.3083 9 13.5417 8.904 13.725 8.712C13.9083 8.52067 14 8.28333 14 8C14 7.71667 13.9043 7.479 13.713 7.287C13.521 7.09567 13.2833 7 13 7H7.975C7.69167 7 7.45833 7.09567 7.275 7.287C7.09167 7.479 7 7.71667 7 8C7 8.28333 7.09567 8.52067 7.287 8.712C7.479 8.904 7.71667 9 8 9ZM8 15H9.025C9.30833 15 9.54167 14.904 9.725 14.712C9.90833 14.5207 10 14.2833 10 14C10 13.7167 9.90433 13.479 9.713 13.287C9.521 13.0957 9.28333 13 9 13H7.975C7.69167 13 7.45833 13.0957 7.275 13.287C7.09167 13.479 7 13.7167 7 14C7 14.2833 7.09567 14.5207 7.287 14.712C7.479 14.904 7.71667 15 8 15ZM12 22C10.6167 22 9.31667 21.7373 8.1 21.212C6.88333 20.6873 5.825 19.975 4.925 19.075C4.025 18.175 3.31267 17.1167 2.788 15.9C2.26267 14.6833 2 13.3833 2 12C2 10.6167 2.26267 9.31667 2.788 8.1C3.31267 6.88333 4.025 5.825 4.925 4.925C5.825 4.025 6.88333 3.31233 8.1 2.787C9.31667 2.26233 10.6167 2 12 2C13.3833 2 14.6833 2.26233 15.9 2.787C17.1167 3.31233 18.175 4.025 19.075 4.925C19.975 5.825 20.6873 6.88333 21.212 8.1C21.7373 9.31667 22 10.6167 22 12C22 13.3833 21.7373 14.6833 21.212 15.9C20.6873 17.1167 19.975 18.175 19.075 19.075C18.175 19.975 17.1167 20.6873 15.9 21.212C14.6833 21.7373 13.3833 22 12 22ZM12 20C14.2167 20 16.1043 19.221 17.663 17.663C19.221 16.1043 20 14.2167 20 12C20 9.78333 19.221 7.89567 17.663 6.337C16.1043 4.779 14.2167 4 12 4C9.78333 4 7.896 4.779 6.338 6.337C4.77933 7.89567 4 9.78333 4 12C4 14.2167 4.77933 16.1043 6.338 17.663C7.896 19.221 9.78333 20 12 20ZM14.05 15.55L13.35 14.85C13.15 14.65 12.9127 14.5457 12.638 14.537C12.3627 14.529 12.125 14.625 11.925 14.825C11.725 15.025 11.625 15.2623 11.625 15.537C11.625 15.8123 11.725 16.05 11.925 16.25L13.35 17.675C13.55 17.875 13.7833 17.975 14.05 17.975C14.3167 17.975 14.55 17.875 14.75 17.675L18.325 14.1C18.525 13.9 18.621 13.6667 18.613 13.4C18.6043 13.1333 18.5 12.9 18.3 12.7C18.1 12.5167 17.8667 12.4207 17.6 12.412C17.3333 12.404 17.1 12.5 16.9 12.7L14.05 15.55Z" fill="#191919" fill-opacity="0.75"/>
</svg>
